/* XPM */
static char *b890c7041ede40b79031c1cc846c2cf16IEHhfmVyaIVJGSQ[] = {
/* columns rows colors chars-per-pixel */
"31 30 20 1 ",
"  c None",
". c #0C0A07",
"X c #291A18",
"o c #362623",
"O c #3A2B28",
"+ c #4C342F",
"@ c #553D39",
"# c #4C403D",
"$ c #554C3C",
"% c #425059",
"& c #634A45",
"* c #57636B",
"= c #6E7D61",
"- c #B56A68",
"; c #81817D",
": c #929291",
"> c #C0AC98",
", c #D2A394",
"< c #E4B5A5",
"1 c #DBCBBC",
/* pixels */
"                               ",
"                               ",
"                               ",
"                               ",
"                               ",
"              ..  .            ",
"           ...++..+.           ",
"          .+++&&++&+.          ",
"           .&&&&&&&&&.         ",
"          .&&&&&&&&&&+.        ",
"          .&&&++&+&&&++.       ",
"         .++&&,+&,&&&&.        ",
"          .+&,,,&,,&&&.        ",
"          .&&,.<,<.,+&&.       ",
"         .@&-,X<<<X,-@.        ",
"          .@@,<<<<<,@@.        ",
"           .@@,<<<,@@.         ",
"            .@.,,,.@.          ",
"           .#=O>>>O=#.         ",
"           .##O11>O##.         ",
"           .##O111O##.         ",
"            .##<:<##.          ",
"            .O#<;<#O.          ",
"            .OO%;%OO.          ",
"            .%**:**%.          ",
"            .%**:**%.          ",
"            .%*%.%*%.          ",
"            .%%. .%%.          ",
"            .oo. .oo.          ",
"           .$$o. .o$$.         "
};
