/* XPM */
static char *result[] = {
/* columns rows colors chars-per-pixel */
"40 40 248 2 ",
"   c #445066",
".  c #414D62",
"X  c #3B4559",
"o  c #353E50",
"O  c #323B4C",
"+  c #333B4D",
"@  c #333C4D",
"#  c #384154",
"$  c #3F4A5F",
"%  c #414C62",
"&  c #3B465A",
"*  c #434F65",
"=  c #424E64",
"-  c #404A5F",
";  c #3D475B",
":  c #3C4559",
">  c #3C4659",
",  c #3E495D",
"<  c #424E63",
"1  c #404B60",
"2  c #455167",
"3  c #4A566D",
"4  c #4F5C74",
"5  c #525E77",
"6  c #515D76",
"7  c #4D5971",
"8  c #475369",
"9  c #515E77",
"0  c #414D63",
"q  c #47546B",
"w  c #55627C",
"e  c #647290",
"r  c #697897",
"t  c #697896",
"y  c #687795",
"u  c #697997",
"i  c #5D6B87",
"p  c #4D5972",
"a  c #48546B",
"s  c #54627C",
"d  c #687796",
"f  c #49556D",
"g  c #5A6883",
"h  c #6C7C9B",
"j  c #7182A3",
"k  c #6E7E9F",
"l  c #6B7C9C",
"z  c #6B7B9C",
"x  c #6B7B9B",
"c  c #6C7C9D",
"v  c #7081A1",
"b  c #647390",
"n  c #4F5D76",
"m  c #49566D",
"M  c #596782",
"N  c #6F7F9F",
"B  c #7181A2",
"V  c #7283A3",
"C  c #5A6984",
"Z  c #6F7FA0",
"A  c #687898",
"S  c #637292",
"D  c #627191",
"F  c #627292",
"G  c #627291",
"H  c #647494",
"J  c #6F80A0",
"K  c #505D76",
"L  c #4A566E",
"P  c #6A7A9B",
"I  c #7080A1",
"U  c #7383A4",
"Y  c #465268",
"T  c #63728F",
"R  c #647391",
"E  c #5C6A88",
"W  c #566482",
"Q  c #556381",
"!  c #566582",
"~  c #576684",
"^  c #576583",
"/  c #556481",
"(  c #586684",
")  c #606F8D",
"_  c #657493",
"`  c #5D6B86",
"'  c #4C5870",
"]  c #465269",
"[  c #54617B",
"{  c #5F6E8C",
"}  c #667593",
"|  c #394357",
" . c #455066",
".. c #4D5A72",
"X. c #48546D",
"o. c #455169",
"O. c #445068",
"+. c #4B5872",
"@. c #4D5A74",
"#. c #4A5670",
"$. c #46526A",
"%. c #4B5770",
"&. c #4E5B73",
"*. c #4A556C",
"=. c #3D475C",
"-. c #4B576F",
";. c #4F5B73",
":. c #505D75",
">. c #374153",
",. c #384254",
"<. c #3A4457",
"1. c #3C465A",
"2. c #3B4558",
"3. c #3A4458",
"4. c #3A4357",
"5. c #3E485D",
"6. c #434E64",
"7. c #445067",
"8. c #404B61",
"9. c #394255",
"0. c #3D475A",
"q. c #465167",
"w. c #465166",
"e. c #454F65",
"r. c #455065",
"t. c #444F65",
"y. c #434F64",
"u. c #5F6D88",
"i. c #5E6C88",
"p. c #5E6C87",
"a. c #5F6D89",
"s. c #6C7B9B",
"d. c #6C7C9C",
"f. c #6D7D9D",
"g. c #61708C",
"h. c #4E5B74",
"j. c #49556C",
"k. c #576580",
"l. c #677696",
"z. c #667696",
"x. c #7080A0",
"c. c #4F5C75",
"v. c #6D7D9C",
"b. c #7081A2",
"n. c #5D6C8B",
"m. c #5C6B8B",
"M. c #5C6B8A",
"N. c #5F6E8D",
"B. c #677797",
"V. c #62718E",
"C. c #586680",
"Z. c #586681",
"A. c #697998",
"S. c #5A6988",
"D. c #637393",
"F. c #5E6D8A",
"G. c #525F78",
"H. c #5F6D8A",
"J. c #61708E",
"K. c #48556C",
"L. c #56647E",
"P. c #5F6F8E",
"I. c #5A6989",
"U. c #5A6A89",
"Y. c #5B6A89",
"T. c #5F6E8E",
"R. c #606F8F",
"E. c #596784",
"W. c #4C5972",
"Q. c #455268",
"!. c #54617C",
"~. c #586784",
"^. c #5B6A8A",
"/. c #586783",
"(. c #4B5871",
"). c #515F7A",
"_. c #5E6D8B",
"`. c #607090",
"'. c #5D6C8C",
"]. c #566583",
"[. c #566481",
"{. c #505D79",
"}. c #404C61",
"|. c #48546C",
" X c #4F5D78",
".X c #47536A",
"XX c #53617E",
"oX c #4F5C77",
"OX c #4D5B75",
"+X c #4A5770",
"@X c #47536B",
"#X c #455068",
"$X c #424D64",
"%X c #3D485D",
"&X c #384255",
"*X c #394356",
"=X c #3C475B",
"-X c #465169",
";X c #48556D",
":X c #4C5973",
">X c #3F4A60",
",X c #434F66",
"<X c #46536A",
"1X c #374154",
"2X c #434E65",
"3X c #505C75",
"4X c #5F6C88",
"5X c #5E6B87",
"6X c #6E7E9E",
"7X c #667695",
"8X c #56647F",
"9X c #596887",
"0X c #54627F",
"qX c #556380",
"wX c #586685",
"eX c #687897",
"rX c #6A7A9A",
"tX c #52607B",
"yX c #617090",
"uX c #5E6D8D",
"iX c #596886",
"pX c #515F7B",
"aX c #4E5B76",
"sX c #5B6B8A",
"dX c #60708F",
"fX c #617191",
"gX c #47546C",
"hX c #515E7A",
"jX c #46516A",
"kX c #3F495F",
"lX c #4D5A75",
"zX c #4B5771",
"xX c #424D63",
"cX c #55637D",
"vX c #677796",
"bX c #5E6D89",
"nX c #4D5A73",
"mX c #55637E",
"MX c #606F8E",
"NX c #586683",
"BX c #4B5870",
"VX c #515F79",
"CX c #586785",
"ZX c #4E5C76",
"AX c #445167",
"SX c #455168",
"DX c #455269",
"FX c white",
/* pixels */
"  . X o O O + + + + + + + + + + + O @ # $ % & o O O + + + + + + + + + + + + + + ",
"* = - ; : > > > > > > > > > > > > : > , . < 1 ; : > > > > > > > > > > > > > > > ",
"= 2 3 4 5 5 5 5 5 5 5 5 5 5 5 5 5 5 6 7 8 2 3 4 5 5 5 5 5 5 5 5 5 5 5 5 5 9 6 6 ",
"0 q w e r t y y y y y y y y y y y u y i p a s e r t y y y y y y y y y y y y d d ",
"0 f g h j k l z z z x x z z z z c v v b n m M h j k l z z z x x z z z z c N B V ",
"0 m C h Z A S D F F G D F F F D H c J b K L g h Z A S D F F G D F F F D H P I U ",
"1 Y w T R E W Q W ! ~ ~ ^ W / Q ( ) _ ` ' ] [ T R E W Q W ! ~ ~ ^ W / Q ( { } t ",
"| ;  .7 ..X.o.O.o.X.+.@.#.$.O.O.$.%.&.*.1 =. .7 ..X.o.O.o.X.+.@.#.$.O.O.$.-.;.:.",
">.,.<.> 1.2.3.4.3.5.6.7.8.& 4.4.3.X 1.2.9.,.<.> 1.2.3.4.3.5.6.7.8.& 4.4.3.X 1.0.",
"q.w. .e.e.r. .r.r.t.y.6.* t.r. . .r.e.r. .w. .e.e.r. .r.r.t.y.6.* t.r. . .r.e.t.",
"u.i.i.p.p.i.i.a.i w 3 ] 4 g i.i.i.p.p.i.i.i.i.p.p.i.i.a.i w 3 ] 4 g i.i.i.i.p.p.",
"h h h h h s.d.N f.g.h.j.k.u N f.h s.h h h h h h h s.d.N f.g.h.j.k.u N f.h s.h h ",
"l.l.l.l.z.z.A k x.b c.m g v.b.x l.z.z.l.l.l.l.l.z.z.A k x.b c.m M h I x l.z.z.l.",
"n.n.n.n.m.M.N.B.d.V.4 f C.u x S n.M.n.n.n.n.n.n.m.M.N.B.d.V.4 f Z.A.x S n.M.n.n.",
"S.S.S.S.S.S.m.D.B.F.h.q G.H.J.n.S.S.S.S.S.S.S.S.S.S.m.D.B.F.&.K.L._ z.P.I.S.S.S.",
"I.I.U.Y.Y.Y.M.T.R.E.W.Q.K.c.!.~.Y.^.Y.Y.I.I.U.Y.Y.Y.M.T.R./.(.q )._.`.'.Y.U.Y.Y.",
"~ ~ ].W / / [.! / {.q 0 }.< |.{.Q ! [.W ^ ~ ].W / / [.! /  X.X  (.XX! W [.[.[.[.",
"oXOX+X@Xo.o.o.o.#X$X%X3.&X*X=X$Xo.-X-X;X:XOX+X@Xo.o.o.o.#X0 =.& >X,Xo.o.o.-Xo.o.",
"<X7.8.& 4.<.3.3.<.*X&X1X>.>.&X*X<.<.3.5.2X7.8.& 4.<.3.3.<.*X&X# 9.4.3.3.3.3.3.3.",
"= 6.* t.r. . . . . .w.q.q.q.w. . .r.r.t.y.6.* t.r. . . . . .w.q. . . . . .r.r.r.",
"0 Y 3Xg i.i.i.i.i.i.i.u.u.u.i.i.i.a.i w 3 ] 4 g i.i.i.i.i.i.i.4Xi.i.i.i.i.p.5Xi ",
"0 K.Z.u N f.h h h h h h h h h s.d.N f.g.h.j.k.u N f.h s.h h h h h h h s.d.f.6X6X",
". j.g h I x B.l.B.B.B.l.z.l.z.z.A k x.b c.m M h I x l.z.z.l.l.l.l.l.z.z.A c v V ",
"0 K.M A.x S n.M.M.m.n.n.n.n.m.M.N.B.d.V.4 f Z.A.x S n.M.n.n.n.n.n.n.m.M.N.7Xf.x.",
"< |.8X_ z.R.9XW 0XqXwXS.I.S.S.S.m.D.B.F.&.K.L._ z.P.I.S.S.S.S.S.S.S.S.S.M.G eXrX",
"= @XtX_.yXuXiXpX:XaX/ S.^.Y.Y.Y.M.T.R./.(.q )._.`.'.Y.U.Y.Y.I.I.U.Y.Y.Y.sXuXdXfX",
"}.  (.XX^ ^ XX(.7.gXhX^ ~ W / / [.! /  X.X  (.XX! W [./ [.W ^ ~ ].W / / [.[.W W ",
"<.& >X,XjX$.7.kXX $ ;XlXzX@Xo.o.o.o.#X0 =.& >X,Xo.o.o.o.-X;X:XOX+X@Xo.o.o.o.o.#X",
">.# 9.4.3.3.4.&X# 1.xX7.}.& 4.<.3.3.<.*X&X# 9.4.3.3.3.4.3.5.2X7.8.& 4.<.3.3.3.3.",
"q.q. . . . . . . .  * 6.y.t.r. . . . . .w.q. . . . . .r.r.t.y.6.* t.r. . . . . .",
"u.4Xi.i.i.i.i.a.5XcXL ] 4 g i.i.i.i.i.i.i.4Xi.i.i.i.i.a.i w 3 ] 4 g i.i.i.i.i.i.",
"h h h h h s.d.N f.g.h.j.k.u N f.h s.h h h h h h h s.d.N f.g.h.j.k.u N f.h s.h h ",
"l.l.l.l.z.z.A k x.b c.m M h I x l.z.z.l.l.l.l.l.z.z.A k x.b c.m M h I x l.z.z.l.",
"n.n.n.n.m.M.N.B.d.V.4 f Z.A.x S n.M.n.n.n.n.n.n.m.M.N.B.d.V.4 f Z.A.x S n.M.n.n.",
"S.S.S.S.S.9XM.S vXbXnXK.mX_ z.T.S.9XS.S.S.S.S.S.S.9XM.S vXbXnXK.mX_ z.T.S.9XS.S.",
"I.I.I.I.S.S.^.T.MXNXBX@XVXn.R.n.I.S.I.I.I.I.I.I.S.S.^.T.MXNXBX@XVXn.R.n.I.S.I.I.",
"~ ~ ~ ~ ~ ~ ~ CX~ pX;X] @.qXCXwX~ ~ ~ ~ ~ ~ ~ ~ ~ ~ ~ CX~ pX;X] @.qXCXwX~ ~ ~ ~ ",
"ZXZXZXZXZXZXZXZXOX+X] AX|.:XaXZXZXZXZXZXZXZXZXZXZXZXZXZXOX+X] AX|.:XaXZXZXZXZXZX",
"] ] ] ] ] ] ] ] ] SX  ,X7.DX] ] ] ] ] ] ] ] ] ] ] ] ] ] ] SX  ,X7.DX] ] ] ] ] ] ",
"= = = = = = = < = = * * 6.= < < = = = = = = = = = = = < = = * * 6.= < < = = = = "
};
